Coordinates
version=1
nRows=7
nColumns=40
inDegrees=yes

Units are S.I. units (second, meters, Newtons, ...)
If the header above contains a line with 'inDegrees', this indicates whether rotational values are in degrees (yes) or radians (no).

endheader
time	pelvis_tilt	pelvis_list	pelvis_rotation	pelvis_tx	pelvis_ty	pelvis_tz	hip_flexion_r	hip_adduction_r	hip_rotation_r	knee_angle_r	knee_angle_r_beta	ankle_angle_r	subtalar_angle_r	mtp_angle_r	hip_flexion_l	hip_adduction_l	hip_rotation_l	knee_angle_l	knee_angle_l_beta	ankle_angle_l	subtalar_angle_l	mtp_angle_l	lumbar_extension	lumbar_bending	lumbar_rotation	arm_flex_r	arm_add_r	arm_rot_r	elbow_flex_r	pro_sup_r	wrist_flex_r	wrist_dev_r	arm_flex_l	arm_add_l	arm_rot_l	elbow_flex_l	pro_sup_l	wrist_flex_l	wrist_dev_l
      2.90000000	     -1.94138620	      3.50511626	      0.60315618	     -0.42986995	      0.77456253	     -0.79725302	     48.93275640	     -3.49232116	    -10.57131014	     78.55409276	      1.37102756	     24.53457182	      0.00000000	      0.00000000	     54.76978754	     -4.58885106	    -12.36241430	     19.36423938	      0.33796973	    -27.03573917	      0.00000000	      0.00000000	    -26.78917535	    -26.03277933	    -21.34551925	     77.21676672	    -13.65789998	     18.49160364	     55.41686195	     87.57432258	      0.00000000	      0.00000000	     89.95949414	     10.28067531	     32.36942237	     35.61068925	     46.99087801	      0.00000000	      0.00000000
      2.90500000	     -1.95671943	      3.51269849	      0.53524785	     -0.43004109	      0.77388852	     -0.79723877	     49.05018099	     -3.49011538	    -10.55713898	     78.70707258	      1.37369756	     24.55020212	      0.00000000	      0.00000000	     54.86932153	     -4.63174072	    -12.34574635	     19.43702844	      0.33924014	    -27.02493872	      0.00000000	      0.00000000	    -26.78781163	    -26.05230020	    -21.31752118	     77.29410159	    -13.65279363	     18.50141414	     55.40666455	     87.56010130	      0.00000000	      0.00000000	     89.95956290	     10.29640024	     32.27032706	     35.67590423	     46.84247485	      0.00000000	      0.00000000
      2.91000000	     -1.98859956	      3.51555839	      0.44039190	     -0.43020038	      0.77323247	     -0.79721829	     49.16955888	     -3.46069152	    -10.51909499	     78.82085294	      1.37568340	     24.58840732	      0.00000000	      0.00000000	     54.98062300	     -4.69740612	    -12.33619916	     19.52661193	      0.34080367	    -27.02139291	      0.00000000	      0.00000000	    -26.73097474	    -26.06107566	    -21.23018632	     77.36907533	    -13.65904802	     18.54791708	     55.36003983	     87.51397054	      0.00000000	      0.00000000	     89.95968468	     10.28025948	     32.21439836	     35.68398616	     46.63392506	      0.00000000	      0.00000000
      2.91500000	     -2.04151872	      3.49542073	      0.39607702	     -0.43033669	      0.77253130	     -0.79731057	     49.31368825	     -3.46990343	    -10.54583590	     78.94213530	      1.37780018	     24.66938021	      0.00000000	      0.00000000	     55.12114630	     -4.73965686	    -12.29594341	     19.57452178	      0.34163985	    -27.12560547	      0.00000000	      0.00000000	    -26.66990936	    -26.02810627	    -21.20648485	     77.43214746	    -13.64350947	     18.59766181	     55.35230749	     87.55909234	      0.00000000	      0.00000000	     89.95972710	     10.25660438	     32.01819109	     35.74231137	     46.68883206	      0.00000000	      0.00000000
      2.92000000	     -2.03693746	      3.50871925	      0.34089734	     -0.43049854	      0.77193132	     -0.79734514	     49.39368550	     -3.49698438	    -10.54419201	     79.06240252	      1.37989924	     24.67334157	      0.00000000	      0.00000000	     55.19578056	     -4.76778071	    -12.32521672	     19.62939139	      0.34259751	    -27.20662078	      0.00000000	      0.00000000	    -26.66378338	    -26.02663597	    -21.13635429	     77.51338904	    -13.66194667	     18.62831023	     55.27444973	     87.52977197	      0.00000000	      0.00000000	     89.95983451	     10.26173692	     31.95807659	     35.83567174	     46.71706856	      0.00000000	      0.00000000
      2.92500000	     -2.09909957	      3.50967804	      0.27905945	     -0.43068405	      0.77115989	     -0.79736646	     49.56383466	     -3.49227554	    -10.53501336	     79.21229474	      1.38251535	     24.63998046	      0.00000000	      0.00000000	     55.35223654	     -4.81037950	    -12.28540828	     19.70220252	      0.34386830	    -27.19983745	      0.00000000	      0.00000000	    -26.58245699	    -26.03067130	    -21.07218711	     77.57672801	    -13.64619719	     18.60021497	     55.23770290	     87.56357716	      0.00000000	      0.00000000	     89.96000698	     10.24517252	     31.99683064	     35.92624674	     46.51305404	      0.00000000	      0.00000000
      2.93000000	     -2.08302369	      3.54023881	      0.19167512	     -0.43087181	      0.77053393	     -0.79737355	     49.64895287	     -3.49143672	    -10.47621200	     79.35525440	      1.38501047	     24.74725221	      0.00000000	      0.00000000	     55.40814474	     -4.85127396	    -12.31169691	     19.75647556	      0.34481555	    -27.25239220	      0.00000000	      0.00000000	    -26.60492874	    -26.04976302	    -20.99811735	     77.67967207	    -13.68325207	     18.68525021	     55.25951285	     87.57177124	      0.00000000	      0.00000000	     89.95995608	     10.29538407	     31.58771076	     36.00161014	     46.37439917	      0.00000000	      0.00000000
